# Blender 3.4.0
# www.blender.org
mtllib grs.mtl
o Plane.037
v -0.988212 -0.025925 0.000002
v 1.011788 -0.025925 0.000002
v -0.988212 1.974074 0.000002
v 1.011788 1.974074 0.000002
v -0.695318 -0.025926 0.707109
v 0.718895 -0.025926 -0.707105
v -0.695318 1.974074 0.707109
v 0.718895 1.974074 -0.707105
v 0.718895 -0.025926 0.707109
v -0.695318 -0.025926 -0.707105
v 0.718895 1.974074 0.707109
v -0.695318 1.974074 -0.707105
vn -0.0000 -0.0000 1.0000
vn 0.7071 -0.0000 0.7071
vn -0.7071 -0.0000 0.7071
vt 0.000000 -0.031990
vt 1.000000 -0.031990
vt 0.000000 0.968010
vt 1.000000 0.968010
vt 0.000000 -0.031990
vt 1.000000 -0.031990
vt 0.000000 0.968010
vt 1.000000 0.968010
vt 0.000000 -0.031990
vt 1.000000 -0.031990
vt 0.000000 0.968010
vt 1.000000 0.968010
s 0
usemtl Material.006
f 2/2/1 3/3/1 1/1/1
f 5/5/2 8/8/2 7/7/2
f 11/11/3 10/10/3 9/9/3
f 2/2/1 4/4/1 3/3/1
f 5/5/2 6/6/2 8/8/2
f 11/11/3 12/12/3 10/10/3
